<svg xmlns="http://www.w3.org/2000/svg" height="512" viewBox="0 0 512 512" width="512">
    <g id="Flat">
        <rect fill="#03999c" height="176" rx="16" width="64" x="56" y="240"/>
        <rect fill="#03999c" height="256" rx="16" width="64" x="168" y="160"/>
        <rect fill="#03999c" height="184" rx="16" width="64" x="288" y="232"/>
        <rect fill="#03999c" height="240" rx="16" width="64" x="400" y="176"/>
        <rect fill="#0e638b" height="48" rx="8" width="464" x="24" y="432"/>
        <path d="m349.65685 45.65685 28.6863 28.6863a8 8 0 0 1 0 11.3137l-52.6863 52.6863a8 8 0 0 1 -11.3137 0l-97.37259-97.37259a24 24 0 0 0 -33.94112 0l-137.37259 137.37259a8 8 0 0 0 0 11.3137l28.6863 28.6863a8 8 0 0 0 11.3137 0l108.6863-108.6863a8 8 0 0 1 11.3137 0l97.37259 97.37259a24 24 0 0 0 33.94112 0l81.37259-81.37259a8 8 0 0 1 11.3137 0l28.6863 28.6863a8 8 0 0 0 13.65685-5.65686v-108.68629a8 8 0 0 0 -8-8h-108.68629a8 8 0 0 0 -5.65686 13.65685z"
              fill="#537ec2"/>
        <g fill="#b1cdb4">
            <circle cx="88" cy="304" r="24"/>
            <circle cx="136" cy="456" r="24"/>
            <circle cx="200" cy="240" r="24"/>
            <circle cx="320" cy="264" r="24"/>
            <circle cx="432" cy="304" r="24"/>
            <circle cx="432" cy="456" r="24"/>
        </g>
        <path d="m192 312h-32a8 8 0 0 1 -8-8v-64a8 8 0 0 1 8-8h40a8 8 0 0 1 8 8 8 8 0 0 1 -8 8h-32v48h24z"
              fill="#d13913"/>
        <path d="m200 352h-112a8 8 0 0 1 -8-8v-40a8 8 0 0 1 8-8 8 8 0 0 1 8 8v32h104z" fill="#d13913"/>
        <path d="m344 360h88a8 8 0 0 0 8-8v-48a8 8 0 0 0 -8-8 8 8 0 0 0 -8 8v40h-80z" fill="#d13913"/>
        <path d="m136 464a8 8 0 0 1 -8-8v-64a8 8 0 0 1 8-8h40v16h-32v56a8 8 0 0 1 -8 8z" fill="#d13913"/>
        <path d="m432 464a8 8 0 0 1 -8-8v-56h-80v-16h88a8 8 0 0 1 8 8v64a8 8 0 0 1 -8 8z" fill="#d13913"/>
        <path d="m360 320h-64v-16h56v-32h-32a8 8 0 0 1 -8-8 8 8 0 0 1 8-8h40a8 8 0 0 1 8 8v48a8 8 0 0 1 -8 8z"
              fill="#d13913"/>
        <circle cx="256" cy="376" fill="#f3b73f" r="104"/>
        <circle cx="256" cy="376" fill="#e0802b" r="88"/>
        <path d="m308 352a36.05516 36.05516 0 0 0 -28-35.0929v-4.9071a8 8 0 0 0 -16 0v4h-16v-4a8 8 0 0 0 -16 0v4h-16a12 12 0 0 0 0 24h8v72h-8a12 12 0 0 0 0 24h16v4a8 8 0 0 0 16 0v-4h16v4a8 8 0 0 0 16 0v-4.9071a35.9735 35.9735 0 0 0 18.811-59.0929 35.85665 35.85665 0 0 0 9.189-24zm-36 60h-24v-24h24a12 12 0 0 1 0 24zm0-48h-24v-24h24a12 12 0 0 1 0 24z"
              fill="#f3b73f"/>
    </g>
</svg>